<?xml version="1.0" standalone="no"?>
<!DOCTYPE svg PUBLIC "-//W3C//DTD SVG 20010904//EN"
 "http://www.w3.org/TR/2001/REC-SVG-20010904/DTD/svg10.dtd">
<svg version="1.0" xmlns="http://www.w3.org/2000/svg"
 width="512.000000pt" height="512.000000pt" viewBox="0 0 512.000000 512.000000"
 preserveAspectRatio="xMidYMid meet">
<metadata>
Created by potrace 1.11, written by Peter Selinger 2001-2013
</metadata>
<g transform="translate(0.000000,512.000000) scale(0.100000,-0.100000)"
fill="#000000" stroke="none">
<path d="M2320 5109 c-491 -47 -981 -246 -1366 -557 -599 -482 -954 -1224
-954 -1992 0 -577 204 -1155 568 -1606 482 -599 1224 -954 1992 -954 577 0
1155 204 1606 568 599 482 954 1224 954 1992 0 577 -204 1155 -568 1606 -433
538 -1071 879 -1767 944 -125 11 -340 11 -465 -1z m-1038 -2451 l3 -763 373
-3 372 -2 0 -95 0 -95 -490 0 -490 0 0 860 0 860 115 0 115 0 2 -762z m1232
740 c26 -24 601 -1042 645 -1141 l25 -59 24 54 c12 29 159 300 325 602 226
411 308 551 325 557 13 5 66 9 118 9 l94 0 0 -860 0 -860 -100 0 -100 0 -2
679 -3 678 -295 -539 c-180 -330 -304 -546 -319 -556 -34 -23 -116 -21 -141 4
-10 10 -155 262 -321 559 -165 297 -302 541 -303 542 0 1 0 -307 2 -683 l3
-684 -106 0 -105 0 0 853 c0 470 3 857 7 860 3 4 50 7 104 7 87 0 101 -2 123
-22z"/>
</g>
</svg>
